HIERARCHY
ROOT Hips
{
	OFFSET 0.00000 0.00000 0.00000
	CHANNELS 6 Xposition Yposition Zposition Zrotation Yrotation Xrotation 
	JOINT LHipJoint
	{
		OFFSET 0 0 0
		CHANNELS 3 Zrotation Yrotation Xrotation
		JOINT LeftHip
		{
			OFFSET 1.36337 -1.57426 1.11036
			CHANNELS 3 Zrotation Yrotation Xrotation
			JOINT LeftKnee
			{
				OFFSET 2.38468 -6.55187 0.00000
				CHANNELS 3 Zrotation Yrotation Xrotation
				JOINT LeftAnkle
				{
					OFFSET 2.37166 -6.51609 0.00000
					CHANNELS 3 Zrotation Yrotation Xrotation
					JOINT LeftToe
					{
						OFFSET 0.29078 -0.79891 2.01393
						CHANNELS 3 Zrotation Yrotation Xrotation
						End Site
						{
							OFFSET 0.00000 -0.00000 1.07924
						}
					}
				}
			}
		}
	}
	JOINT RHipJoint
	{
		OFFSET 0 0 0
		CHANNELS 3 Zrotation Yrotation Xrotation
		JOINT RightHip
		{
			OFFSET -1.36349 -1.57426 1.11036
			CHANNELS 3 Zrotation Yrotation Xrotation
			JOINT RightKnee
			{
				OFFSET -2.29562 -6.30717 0.00000
				CHANNELS 3 Zrotation Yrotation Xrotation
				JOINT RightAnkle
				{
					OFFSET -2.40985 -6.62100 0.00000
					CHANNELS 3 Zrotation Yrotation Xrotation
					JOINT RightToe
					{
						OFFSET -0.23197 -0.63733 1.92232
						CHANNELS 3 Zrotation Yrotation Xrotation
						End Site
						{
							OFFSET -0.00000 -0.00000 1.01562
						}
					}
				}
			}
		}
	}
	JOINT lowerback
	{
		OFFSET 0 0 0
		CHANNELS 3 Zrotation Yrotation Xrotation
		JOINT Chest
		{
			OFFSET -0.08565 2.03602 -0.24562
			CHANNELS 3 Zrotation Yrotation Xrotation
			JOINT Chest2
			{
				OFFSET -0.00036 2.05693 0.00216
				CHANNELS 3 Zrotation Yrotation Xrotation
				JOINT lowerneck
				{
					OFFSET 0 0 0
					CHANNELS 3 Zrotation Yrotation Xrotation
					JOINT Neck
					{
						OFFSET -0.03664 1.69515 0.31789
						CHANNELS 3 Zrotation Yrotation Xrotation
						JOINT Head
						{
							OFFSET 0.00932 1.70181 -0.46013
							CHANNELS 3 Zrotation Yrotation Xrotation
							End Site
							{
								OFFSET 0.01243 1.77620 -0.19377
							}
						}
					}
				}
				JOINT LeftCollar
				{
					OFFSET 0 0 0
					CHANNELS 3 Zrotation Yrotation Xrotation
					JOINT LeftShoulder
					{
						OFFSET 3.74344 0.81315 -0.36647
CHANNELS 3 Zrotation Xrotation Yrotation
						JOINT LeftElbow
						{
OFFSET 0 -4.971850 -0.000000
CHANNELS 3 Zrotation Xrotation Yrotation
							JOINT LeftWrist
							{
OFFSET 0 -3.358110 0.000000
CHANNELS 3 Zrotation Xrotation Yrotation
								JOINT lhand
								{
									OFFSET 0 0 0
CHANNELS 3 Zrotation Xrotation Yrotation
									JOINT LFingers
									{
OFFSET 0 -0.622780 0.000000
CHANNELS 3 Zrotation Xrotation Yrotation
										End Site
										{
OFFSET 0 -0.502100 0.000000
										}
									}
								}
								JOINT LThumb
								{
OFFSET 0 0.000000 0.000000
CHANNELS 3 Zrotation Xrotation Yrotation
									End Site
									{
OFFSET 0 -0.509760 0.509760
									}
								}
							}
						}
					}
				}
				JOINT RightCollar
				{
					OFFSET 0 0 0
					CHANNELS 3 Zrotation Yrotation Xrotation
					JOINT RightShoulder
					{
						OFFSET -3.75385 0.50666 -0.06525
CHANNELS 3 Zrotation Xrotation Yrotation
						JOINT RightElbow
						{
OFFSET 0 -4.964930 -0.000000
CHANNELS 3 Zrotation Xrotation Yrotation
							JOINT RightWrist
							{
OFFSET 0 -3.349290 0.000000
CHANNELS 3 Zrotation Xrotation Yrotation
								JOINT rhand
								{
									OFFSET 0 0 0
CHANNELS 3 Zrotation Xrotation Yrotation
									JOINT RFingers
									{
OFFSET 0 -0.638040 0.000000
CHANNELS 3 Zrotation Xrotation Yrotation
										End Site
										{
OFFSET 0 -0.514410 0.000000
										}
									}
								}
								JOINT RThumb
								{
OFFSET 0 0.000000 0.000000
CHANNELS 3 Zrotation Xrotation Yrotation
									End Site
									{
OFFSET 0 -0.522260 0.522260
									}
								}
							}
						}
					}
				}
			}
		}
	}
}
MOTION
Frames: 7
Frame Time: 0.008333333333333333
-5.999271 12.750106 -0.845680 126.662087 72.132404 149.989342 0.000000 0.000000 0.000000 -16.615729 -22.772056 -76.749088 20.919527 19.979689 92.689389 3.200031 -4.770796 -32.833375 0.067141 -1.671862 -4.599548 0.000000 0.000000 0.000000 -11.698700 -22.167910 -79.618746 -21.620549 -19.936904 94.742982 -1.997382 10.714308 -25.416767 -0.324503 3.661220 -10.125410 8.617573 -2.137313 44.298464 -0.709285 2.802528 9.618399 -6.497198 1.908744 -9.485771 -11.287002 -12.250105 -28.215206 6.302883 -13.807263 17.657803 1.530964 -6.249928 11.549936 0.000000 0.000000 0.000000 7.303489 -6.348696 -51.094977 28.872627 -39.907249 10.678922 26.233928 -36.804518 13.060195 0.000000 0.000000 0.000000 -7.125000 0.000000 0.000000 -0.750525 15.481045 -0.523446 0.000000 0.000000 0.000000 -81.176312 -66.489277 -56.102816 -16.049828 -25.584149 -3.669741 -15.590880 -21.318445 38.891820 0.000000 0.000000 0.000000 7.125000 0.000000 0.000000 27.465479 68.084415 -15.708821
-5.992636 12.762818 -0.842899 126.037541 72.238460 149.385404 0.000000 0.000000 0.000000 -16.716584 -22.653481 -76.630858 20.887358 19.981103 92.595349 3.220032 -4.649275 -32.961690 0.067723 -1.678958 -4.619232 0.000000 0.000000 0.000000 -11.736885 -21.888680 -79.576424 -21.559711 -19.941556 94.564678 -2.003709 10.418224 -25.440941 -0.322590 3.650570 -10.095511 8.348521 -2.123005 44.227537 -0.684044 2.692820 9.623679 -6.285690 1.858257 -9.491167 -11.283818 -12.073940 -28.344428 6.300849 -13.553946 17.716524 1.577192 -6.132003 11.571510 0.000000 0.000000 0.000000 7.184249 -6.278310 -50.616306 28.881750 -39.915379 10.684768 26.367724 -36.633364 12.815131 0.000000 0.000000 0.000000 -7.125000 0.000000 0.000000 -0.640480 15.734816 -0.442783 0.000000 0.000000 0.000000 -78.689741 -66.567258 -52.814028 -17.010769 -26.862643 -4.097181 -12.848774 -25.183701 35.975625 0.000000 0.000000 0.000000 7.125000 0.000000 0.000000 26.556694 64.768075 -13.127217
-5.984530 12.778636 -0.839075 125.635401 72.351722 148.994326 0.000000 0.000000 0.000000 -16.746773 -22.538797 -76.501888 20.837830 19.983142 92.450430 3.223904 -4.447765 -33.017299 0.062296 -1.610664 -4.430868 0.000000 0.000000 0.000000 -11.689515 -21.602639 -79.490116 -21.482297 -19.947256 94.337558 -2.012562 10.096296 -25.482226 -0.330418 3.694392 -10.218486 8.145263 -2.132678 44.154645 -0.667134 2.581113 9.614186 -6.116135 1.804946 -9.508163 -11.226693 -11.868934 -28.379858 6.274295 -13.285037 17.726687 1.614494 -6.010146 11.551326 0.000000 0.000000 0.000000 7.136274 -6.209925 -50.289166 28.824552 -39.864253 10.648072 26.272222 -36.572943 12.756998 0.000000 0.000000 0.000000 -7.125000 0.000000 0.000000 -0.701978 15.810269 -0.484201 0.000000 0.000000 0.000000 -75.450299 -66.452868 -48.424988 -18.388620 -28.645116 -4.737480 -10.990363 -28.603283 34.449918 0.000000 0.000000 0.000000 7.125000 0.000000 0.000000 26.871749 62.935414 -12.155355
-5.975023 12.799250 -0.833186 125.443561 72.474651 148.712456 0.000000 0.000000 0.000000 -16.752242 -22.396516 -76.230284 20.765721 19.985918 92.239323 3.227185 -4.345872 -33.053059 0.056575 -1.534769 -4.221696 0.000000 0.000000 0.000000 -11.609161 -21.319255 -79.222803 -21.392856 -19.953398 94.075461 -2.017947 9.982454 -25.512517 -0.337065 3.730909 -10.320801 8.316489 -2.060149 44.163144 -0.867388 2.716158 9.658780 -6.477349 1.876045 -9.427389 -10.567370 -11.867588 -28.468121 6.158014 -13.517011 17.735522 1.425852 -6.083685 11.531217 0.000000 0.000000 0.000000 7.713224 -6.429616 -50.897752 28.731493 -39.780954 10.588501 26.140711 -36.744000 12.727717 0.000000 0.000000 0.000000 -7.125000 0.000000 0.000000 -0.790410 15.857976 -0.544361 0.000000 0.000000 0.000000 -71.806859 -65.581175 -44.524584 -20.039788 -30.686442 -5.553472 -9.747949 -31.373516 32.851085 0.000000 0.000000 0.000000 7.125000 0.000000 0.000000 26.586009 61.220299 -10.937256
-5.964257 12.826234 -0.826588 125.631509 72.611419 148.694786 0.000000 0.000000 0.000000 -16.705972 -22.241339 -75.808415 20.673090 19.989088 91.968219 3.223940 -4.321193 -33.040067 0.051639 -1.466345 -4.033046 0.000000 0.000000 0.000000 -11.457804 -21.063313 -78.760012 -21.293272 -19.959776 93.783799 -2.030488 10.036411 -25.594389 -0.324054 3.658758 -10.118656 8.266997 -2.125853 44.272525 -0.829704 2.638427 9.665396 -6.379358 1.841856 -9.464325 -10.568155 -11.789655 -28.441583 6.198208 -13.427621 17.791928 1.459342 -6.038255 11.544761 0.000000 0.000000 0.000000 7.746518 -6.349800 -50.742280 28.589683 -39.653386 10.497870 25.925222 -36.649834 12.613908 0.000000 0.000000 0.000000 -7.125000 0.000000 0.000000 -0.930895 16.008219 -0.638097 0.000000 0.000000 0.000000 -68.666814 -65.221528 -40.381759 -21.398684 -32.282873 -6.265199 -8.547287 -33.964234 30.909500 0.000000 0.000000 0.000000 7.125000 0.000000 0.000000 26.108566 59.221877 -9.473593
-5.951268 12.859501 -0.818874 125.853599 72.757568 148.691861 0.000000 0.000000 0.000000 -16.672272 -22.044709 -75.319650 20.558872 19.992411 91.634284 3.222372 -4.380264 -33.021086 0.052032 -1.472137 -4.049025 0.000000 0.000000 0.000000 -11.299588 -20.764600 -78.232117 -21.179041 -19.966484 93.449264 -2.058281 10.021463 -25.770141 -0.315755 3.612262 -9.988332 8.130670 -2.212165 44.486585 -0.752752 2.509507 9.595971 -6.177006 1.772797 -9.628397 -10.709346 -11.653001 -28.275056 6.291547 -13.228148 17.813942 1.561061 -5.950216 11.526830 0.000000 0.000000 0.000000 7.670037 -6.144235 -50.390597 28.369508 -39.453856 10.357734 25.727576 -36.366662 12.425003 0.000000 0.000000 0.000000 -7.125000 0.000000 0.000000 -1.054564 16.238271 -0.717550 0.000000 0.000000 0.000000 -65.759330 -64.859654 -36.043931 -22.589528 -33.629000 -6.913002 -8.958755 -35.457185 31.169644 0.000000 0.000000 0.000000 7.125000 0.000000 0.000000 25.895204 59.547108 -9.587932
-5.935489 12.898180 -0.810374 126.030873 72.907800 148.650594 0.000000 0.000000 0.000000 -16.665054 -21.812320 -74.783877 20.425175 19.995495 91.243283 3.228427 -4.552789 -33.023606 0.054548 -1.507051 -4.145246 0.000000 0.000000 0.000000 -11.144906 -20.433973 -77.676493 -21.048480 -19.973441 93.066875 -2.087389 9.926281 -25.951148 -0.317550 3.622454 -10.016850 7.954565 -2.289060 44.710699 -0.688983 2.380808 9.587413 -5.966405 1.713894 -9.726593 -10.747345 -11.541904 -28.411132 6.348113 -13.062572 17.851636 1.616346 -5.866882 11.557709 0.000000 0.000000 0.000000 7.584915 -6.114247 -50.018489 28.125226 -39.230884 10.202893 25.585014 -35.989399 12.343150 0.000000 0.000000 0.000000 -7.125000 0.000000 0.000000 -1.147623 16.344292 -0.778441 0.000000 0.000000 0.000000 -62.961791 -64.428140 -31.888971 -23.959811 -35.106562 -7.689769 -9.868359 -36.341132 32.230929 0.000000 0.000000 0.000000 7.125000 0.000000 0.000000 25.893734 60.701840 -10.308697
